{"title":"Skyfall 2012 DVDrip English Klam","uid":8064218,"size":2154327597,"categoryP":"video","categoryS":"movies","magnet":"?xt=urn:btih:24c33fddc7e2f5423ac1b3f944e8352d70e25088&amp;dn=Skyfall+2012+DVDrip+English+Klam&amp;tr=udp%3A%2F%2Ftracker.openbittorrent.com%3A80&amp;tr=udp%3A%2F%2Fopen.demonii.com%3A1337&amp;tr=udp%3A%2F%2Ftracker.coppersurfer.tk%3A6969&amp;tr=udp%3A%2F%2Fexodus.desync.com%3A6969","seeders":0,"leechers":1,"uploader":"Klambake","files":-1,"time":1359139682,"description":"With: Daniel Craig, Judi Dench and Javier Bardem\n\nBonds loyaliteit aan M wordt op de proef gesteld als ze achtervolgd wordt door haar verleden. Als de MI6 vervolgens onder vuur komt te liggen is Bond genoodzaakt de bedreiging op te sporen en te vernietigen, ongeacht de hoge persoonlijke prijs die dit met zich mee brengt.\n\nBond's loyalty to M is tested as her past comes back to haunt her, bringing MI6 under attack. \n &lt;a href=&quot;\nhttp://www.imdb.com/title/tt1074638&quot; rel=&quot;nofollow&quot; target=&quot;_NEW&quot;&gt;\nhttp://www.imdb.com/title/tt1074638&lt;/a&gt;\t\n\n------------------------ Dutch Friends ------------------------\n---------------------------------------------------------------\n- Bezoek ook eens mijn vrienden op: &lt;a href=&quot; http://www.Film-Test.nl&quot; rel=&quot;nofollow&quot; target=&quot;_NEW&quot;&gt; http://www.Film-Test.nl&lt;/a&gt; --\n----- voor mijn Nederlandse Sync. ondertitels ---- en meer ----\n------- http://www.Film-Test.nl ---- Over Films en meer -------\n---------------------------------------------------------------\n\nGeneral:\n\nComplete name                    : SkyfallSkyfall.avi\nFormat                           : AVI\nFormat/Info                      : Audio Video Interleave\nFile size                        : 2.00 GiB\nDuration                         : 2h 23mn\nOverall bit rate                 : 2 002 Kbps\n\nVideo:\n\nFormat                           : MPEG-4 Visual\nFormat profile                   : Simple@L3\nFormat settings, BVOP            : No\nFormat settings, QPel            : No\nFormat settings, GMC             : No warppoints\nFormat settings, Matrix          : Default (H.263)\nCodec ID                         : XVID\nCodec ID/Hint                    : XviD\nDuration                         : 2h 23mn\nBit rate                         : 1 544 Kbps\nWidth                            : 720 pixels\nHeight                           : 304 pixels\nDisplay aspect ratio             : 2.35:1\nFrame rate                       : 23.976 fps\nColor space                      : YUV\nChroma subsampling               : 4:2:0\nBit depth                        : 8 bits\nScan type                        : Progressive\nCompression mode                 : Lossy\nBits/(Pixel*Frame)               : 0.294\nStream size                      : 1.54 GiB (77%)\nWriting library                  : XviD 1.1.2 (UTC 2006-11-01)\n\nAudio:\n\nFormat                           : AC-3\nFormat/Info                      : Audio Coding 3\nMode extension                   : CM (complete main)\nCodec ID                         : 2000\nDuration                         : 2h 23mn\nBit rate mode                    : Constant\nBit rate                         : 448 Kbps\nChannel(s)                       : 6 channels\nChannel positions                : Front: L C R, Side: L R, LFE\nSampling rate                    : 48.0 KHz\nBit depth                        : 16 bits\nCompression mode                 : Lossy\nStream size                      : 459 MiB (22%)\nAlignment                        : Aligned on interleaves\nInterleave, duration             : 32 ms (0.77 video frame)\nInterleave, preload duration     : 288 ms","torrent":{"xt":"urn:btih:24c33fddc7e2f5423ac1b3f944e8352d70e25088","amp;dn":"Skyfall+2012+DVDrip+English+Klam","amp;tr":["udp%3A%2F%2Ftracker.openbittorrent.com%3A80","udp%3A%2F%2Fopen.demonii.com%3A1337","udp%3A%2F%2Ftracker.coppersurfer.tk%3A6969","udp%3A%2F%2Fexodus.desync.com%3A6969"],"infoHash":"24c33fddc7e2f5423ac1b3f944e8352d70e25088","infoHashBuffer":{"type":"Buffer","data":[36,195,63,221,199,226,245,66,58,193,179,249,68,232,53,45,112,226,80,136]},"announce":[],"urlList":[]}}